# xmcd CD database file generated by OrangeCD 6.2
#
# Track frame offsets:
#	150
#	13180
#	26807
#	42915
#	61482
#	71637
#	86051
#	100809
#	115001
#	139604
#	163489
#	173129
#	197069
#	217592
#	232249
#	247556
#	274061
#	296404
#
# Disc length: 4169 seconds
#
# Revision: 0
# Processed by: cddbd v1.5.2PL0 Copyright (c) Steve Scherf et al.
# Submitted via: OrangeCD 6.2
#
DISCID=01104712
DTITLE=Mira Kubasinska - Powiedzielismy juz wszystko...
DYEAR=2006
DGENRE=
TTITLE0=Zaspiewam ci tak
TTITLE1=Nie zostawiaj nic
TTITLE2=Spokojnie spij
TTITLE3=Wyspa
TTITLE4=Popatrz to przeciez ja
TTITLE5=Nie przechodz obok mnie
TTITLE6=Poszlabym za Toba
TTITLE7=Gdybys kochal hej
TTITLE8=Przemijanie
TTITLE9=Zapraszam na korride
TTITLE10=Byles we snie tylko
TTITLE11=W co mam wierzyc
TTITLE12=Liscie zabral wiatr
TTITLE13=Czarno-czarny film
TTITLE14=Chcialabym byc sloncem
TTITLE15=Zabierz smutek
TTITLE16=Co tam za mgla
TTITLE17=Zagiel Ziemi
EXTD=
EXTT0=
EXTT1=
EXTT2=
EXTT3=
EXTT4=
EXTT5=
EXTT6=
EXTT7=
EXTT8=
EXTT9=
EXTT10=
EXTT11=
EXTT12=
EXTT13=
EXTT14=
EXTT15=
EXTT16=
EXTT17=
PLAYORDER=
